<svg width="1440" height="385" viewBox="0 0 1440 385" fill="none" xmlns="http://www.w3.org/2000/svg">
<path d="M262.056 225.425L261.345 226.669C250.482 246.679 234.49 263.44 215.009 275.235C206.375 280.406 183.373 292.58 156.792 292.58C141.372 292.745 126.183 288.828 112.767 281.226C99.0683 273.284 87.957 261.555 80.7708 247.449C72.742 232.464 68.7325 214.422 68.7424 193.321V104.81C68.7424 76.5781 71.8137 55.1241 77.9563 40.4477C84.0989 25.7713 92.335 16.0758 102.665 11.3613C112.975 6.64095 126.297 4.29063 142.631 4.31037H201.914C205.146 4.15557 208.386 4.36417 211.572 4.93225C213.264 5.72398 214.686 6.99588 215.66 8.58952L235.421 36.8171C235.747 37.3186 236.189 37.7336 236.71 38.0266C237.231 38.3196 237.816 38.4817 238.414 38.4991C238.645 38.5354 238.881 38.5173 239.103 38.4461C239.326 38.375 239.528 38.2529 239.695 38.0894C239.862 37.926 239.989 37.7259 240.065 37.505C240.14 37.2841 240.163 37.0485 240.132 36.8171V2.24631C240.133 1.65511 239.9 1.08758 239.483 0.667596C239.067 0.247611 238.501 0.00926511 237.91 0.00457352H142.631C117.352 -0.202244 92.511 6.609 70.8755 19.6798C49.1149 32.8012 31.2486 51.4856 19.1179 73.8073C6.30781 97.037 -0.274974 123.183 0.00880137 149.707C-0.241872 176.376 6.33631 202.666 19.1179 226.077C31.2482 248.671 49.0943 267.691 70.8755 281.238C92.3726 294.485 117.122 301.52 142.376 301.561C167.63 301.602 192.402 294.649 213.942 281.472C223.527 275.586 232.382 268.589 240.325 260.627C249.72 251.092 257.768 240.319 264.245 228.606C264.586 227.996 264.861 227.486 265.048 227.125C265.167 226.928 265.245 226.71 265.278 226.483C265.311 226.255 265.298 226.024 265.24 225.802C265.183 225.579 265.081 225.371 264.941 225.188C264.802 225.006 264.627 224.853 264.428 224.739C264.228 224.625 264.008 224.552 263.78 224.524C263.552 224.496 263.321 224.514 263.1 224.577C262.879 224.64 262.673 224.746 262.493 224.89C262.314 225.034 262.165 225.212 262.056 225.413V225.425Z" fill="#F0EDE4" fill-opacity="0.9"/>
<path d="M477.693 132.187C468.206 115.348 454.413 101.33 437.727 91.5687C421.102 81.7589 402.149 76.5845 382.844 76.5845C363.538 76.5845 344.586 81.7589 327.961 91.5687C311.376 101.382 297.672 115.392 288.231 132.187C278.651 149.501 273.625 168.962 273.625 188.748C273.625 208.534 278.651 227.996 288.231 245.31C297.62 262.209 311.331 276.311 327.961 286.177C344.586 295.986 363.538 301.161 382.844 301.161C402.149 301.161 421.102 295.986 437.727 286.177C454.459 276.363 468.258 262.253 477.693 245.31C487.273 227.996 492.299 208.534 492.299 188.748C492.299 168.962 487.273 149.501 477.693 132.187ZM427.873 221.151C427.873 241.976 425.938 257.944 422.066 269.057C418.195 280.17 413.109 287.583 406.809 291.297C399.431 295.265 391.123 297.181 382.752 296.843C374.525 297.152 366.368 295.236 359.14 291.297C352.819 287.609 347.733 280.196 343.882 269.057C340.03 257.918 338.095 241.95 338.075 221.151V155.726C338.075 135.194 340.011 119.511 343.882 108.676C347.753 97.8418 352.908 90.4967 359.347 86.641C366.471 82.6063 374.568 80.6067 382.752 80.8605C391.051 80.5888 399.275 82.5015 406.601 86.4071C413.03 90.1226 418.185 97.4667 422.066 108.44C425.918 119.444 427.853 135.206 427.873 155.726V221.151Z" fill="#F0EDE4" fill-opacity="0.9"/>
<path d="M746.632 132.185C737.156 115.342 723.366 101.323 706.678 91.5676C690.061 81.6477 671.045 76.4655 651.691 76.5832C638.31 76.4828 625.136 79.8792 613.473 86.4356C603.797 91.8007 595.477 99.3066 589.149 108.379C588.882 108.766 588.499 109.057 588.055 109.211C587.611 109.366 587.13 109.374 586.681 109.236C586.232 109.098 585.838 108.821 585.557 108.444C585.277 108.067 585.123 107.611 585.12 107.141V81.0075C585.116 80.6119 585.007 80.2244 584.804 79.885C584.601 79.5457 584.31 79.2668 583.963 79.0772C583.616 78.8875 583.224 78.7941 582.828 78.8065C582.433 78.8189 582.048 78.9367 581.713 79.1477L526.015 113.955C525.699 114.153 525.439 114.427 525.258 114.752C525.077 115.077 524.98 115.443 524.978 115.815V382.769C524.978 383.06 525.036 383.348 525.148 383.617C525.26 383.885 525.424 384.13 525.63 384.335C525.837 384.541 526.081 384.703 526.351 384.814C526.62 384.925 526.909 384.981 527.2 384.981H582.898C583.485 384.978 584.047 384.744 584.462 384.33C584.878 383.916 585.114 383.355 585.12 382.769V270.59C585.121 270.119 585.272 269.661 585.553 269.282C585.833 268.903 586.227 268.624 586.677 268.486C587.127 268.347 587.61 268.356 588.055 268.511C588.5 268.667 588.883 268.96 589.149 269.349C595.477 278.423 603.797 285.929 613.473 291.296C625.136 297.851 638.31 301.247 651.691 301.148C671.045 301.266 690.061 296.083 706.678 286.164C723.416 276.359 737.217 262.246 746.644 245.297C756.224 227.983 761.25 208.521 761.25 188.735C761.25 168.95 756.224 149.488 746.644 132.174L746.632 132.185ZM696.8 221.15C696.8 241.974 694.864 257.943 690.993 269.056C687.122 280.169 682.036 287.582 675.736 291.296C668.362 295.278 660.053 297.204 651.679 296.872C634.902 297.001 618.596 291.332 605.521 280.824C591.892 270.116 585.088 250.225 585.108 221.15V155.725C585.108 127.201 591.912 107.595 605.521 96.9069C618.588 86.3856 634.9 80.7148 651.679 80.8594C659.982 80.5788 668.211 82.5029 675.528 86.4356C681.987 90.1215 687.142 97.4558 690.993 108.438C694.845 119.421 696.78 135.183 696.8 155.725V221.15Z" fill="#F0EDE4" fill-opacity="0.9"/>
<path d="M1015.54 132.185C1006.06 115.34 992.27 101.321 975.577 91.5675C958.961 81.6475 939.944 76.4653 920.59 76.5831C907.21 76.4864 894.036 79.8825 882.372 86.4355C872.708 91.8168 864.391 99.3196 858.049 108.379C857.783 108.768 857.4 109.061 856.955 109.216C856.511 109.372 856.028 109.381 855.578 109.243C855.128 109.104 854.734 108.826 854.453 108.448C854.173 108.07 854.021 107.612 854.019 107.141V81.0369C854.017 80.6403 853.91 80.2514 853.708 79.9101C853.506 79.5689 853.216 79.2876 852.869 79.0952C852.522 78.9028 852.13 78.8062 851.734 78.8154C851.337 78.8246 850.95 78.9393 850.612 79.1476L794.914 113.955C794.599 114.153 794.339 114.427 794.157 114.752C793.976 115.077 793.88 115.443 793.877 115.815V382.769C793.878 383.06 793.936 383.348 794.048 383.617C794.159 383.885 794.323 384.13 794.53 384.335C794.736 384.54 794.981 384.703 795.25 384.814C795.52 384.925 795.808 384.981 796.099 384.981H851.797C852.384 384.978 852.946 384.744 853.362 384.33C853.778 383.916 854.014 383.355 854.019 382.769V270.59C854.02 270.119 854.172 269.661 854.452 269.282C854.732 268.903 855.126 268.624 855.577 268.486C856.027 268.347 856.51 268.356 856.955 268.511C857.399 268.667 857.783 268.96 858.049 269.349C864.408 278.395 872.721 285.895 882.372 291.295C894.037 297.847 907.21 301.243 920.59 301.148C939.944 301.266 958.961 296.083 975.577 286.163C992.315 276.358 1006.12 262.246 1015.54 245.297C1025.12 227.983 1030.15 208.521 1030.15 188.735C1030.15 168.949 1025.12 149.488 1015.54 132.173V132.185ZM965.711 221.15C965.711 241.974 963.776 257.943 959.905 269.056C956.033 280.169 950.947 287.582 944.647 291.295C937.274 295.278 928.964 297.204 920.59 296.872C903.814 296.997 887.509 291.328 874.432 280.824C860.833 270.116 854.029 250.225 854.019 221.15V155.725C854.019 127.201 860.823 107.595 874.432 96.9068C887.503 86.3904 903.812 80.7203 920.59 80.8592C928.893 80.5787 937.122 82.5027 944.439 86.4355C950.898 90.1214 956.053 97.4556 959.905 108.438C963.756 119.421 965.692 135.183 965.711 155.725V221.15Z" fill="#F0EDE4" fill-opacity="0.9"/>
<path d="M1438.38 80.8005C1415.75 74.1222 1391.42 76.3603 1370.39 87.0549C1361.05 91.8492 1353.14 99.0093 1347.43 107.82C1347.18 108.231 1346.79 108.547 1346.34 108.72C1345.89 108.894 1345.39 108.915 1344.93 108.781C1344.46 108.647 1344.05 108.365 1343.76 107.978C1343.47 107.591 1343.31 107.119 1343.31 106.635V81.067C1343.31 80.664 1343.2 80.2689 1342.99 79.9229C1342.79 79.5768 1342.49 79.2925 1342.14 79.0996C1341.78 78.9066 1341.38 78.8121 1340.98 78.8258C1340.58 78.8396 1340.19 78.9611 1339.85 79.1777L1284.21 113.956C1283.89 114.155 1283.62 114.433 1283.44 114.764C1283.26 115.095 1283.17 115.468 1283.17 115.845V189.5C1283.41 208.419 1277.78 226.947 1267.05 242.537C1256.61 257.974 1242.53 270.606 1226.05 279.32C1210.8 287.808 1193.67 292.369 1176.22 292.593C1167.71 292.87 1159.23 291.421 1151.29 288.333C1143.35 285.246 1136.12 280.584 1130.03 274.63C1117.86 262.654 1111.77 244.827 1111.78 221.151V213.895C1111.53 208.907 1112.11 203.913 1113.5 199.115C1113.97 197.731 1114.79 196.493 1115.88 195.521C1116.97 194.549 1118.29 193.878 1119.72 193.572C1124.76 192.701 1129.87 192.345 1134.98 192.508H1260.8C1262.15 192.516 1263.44 191.995 1264.41 191.057C1265.37 190.119 1265.93 188.84 1265.96 187.495C1265.99 187.378 1265.99 187.256 1265.96 187.139C1265.93 167.871 1260.91 148.938 1251.38 132.186C1241.91 115.342 1228.13 101.322 1211.45 91.5679C1194.83 81.6521 1175.81 76.4702 1156.46 76.5835C1137.17 76.4507 1118.21 81.6354 1101.68 91.5679C1085.09 101.373 1071.38 115.385 1061.95 132.186C1052.18 149.387 1047.14 168.866 1047.34 188.644C1047.34 212.335 1052.85 232.648 1063.88 249.585C1074.47 266.207 1089.51 279.54 1107.28 288.083C1125.13 296.779 1144.75 301.25 1164.61 301.148C1182.06 301.158 1199.35 297.813 1215.53 291.296C1231.81 284.862 1246.48 274.934 1258.49 262.213C1267.33 252.889 1274.24 241.922 1278.85 229.934C1279.04 229.45 1279.39 229.049 1279.85 228.799C1280.31 228.549 1280.84 228.466 1281.35 228.563C1281.86 228.661 1282.32 228.934 1282.66 229.335C1282.99 229.736 1283.17 230.239 1283.17 230.76V297.189C1283.17 297.484 1283.23 297.776 1283.34 298.048C1283.46 298.321 1283.62 298.568 1283.83 298.776C1284.04 298.985 1284.29 299.15 1284.56 299.262C1284.84 299.374 1285.13 299.432 1285.42 299.431H1341.06C1341.36 299.432 1341.65 299.374 1341.92 299.262C1342.2 299.15 1342.44 298.985 1342.65 298.776C1342.86 298.568 1343.03 298.321 1343.14 298.048C1343.25 297.776 1343.31 297.484 1343.31 297.189V136.05C1343.31 121.212 1347.97 109.59 1357.3 101.183C1366.35 92.8624 1378.27 88.3423 1390.57 88.5592C1402.2 88.309 1413.51 92.3404 1422.36 99.8864C1431.24 107.467 1435.69 118.096 1435.69 131.771C1435.65 132.061 1435.67 132.356 1435.77 132.633C1435.86 132.91 1436.02 133.162 1436.22 133.368C1436.43 133.574 1436.68 133.73 1436.96 133.822C1437.24 133.914 1437.53 133.939 1437.82 133.897C1438.11 133.94 1438.41 133.914 1438.69 133.822C1438.97 133.731 1439.22 133.576 1439.43 133.371C1439.64 133.165 1439.8 132.913 1439.9 132.636C1439.99 132.358 1440.02 132.062 1439.98 131.771V82.9534C1439.98 82.4715 1439.82 82.0034 1439.54 81.6166C1439.25 81.2297 1438.85 80.944 1438.38 80.8005ZM1111.78 155.723C1111.78 135.191 1113.72 119.507 1117.59 108.673C1121.46 97.8381 1126.61 90.493 1133.05 86.6373C1140.18 82.5991 1148.27 80.5991 1156.46 80.8568C1164.76 80.5797 1172.99 82.5036 1180.31 86.433C1186.74 90.1189 1191.89 97.4531 1195.77 108.436C1199.62 119.44 1201.55 135.202 1201.55 155.723V185.979C1201.55 186.274 1201.49 186.566 1201.38 186.838C1201.26 187.11 1201.1 187.358 1200.89 187.566C1200.68 187.774 1200.43 187.939 1200.16 188.051C1199.89 188.164 1199.59 188.221 1199.3 188.22H1134.98C1129.94 188.098 1124.9 188.453 1119.93 189.281C1118.3 189.604 1116.73 190.205 1115.31 191.057C1114.97 191.286 1114.58 191.419 1114.17 191.443C1113.77 191.467 1113.36 191.381 1113 191.193C1112.64 191.006 1112.33 190.724 1112.12 190.378C1111.9 190.032 1111.79 189.634 1111.78 189.227V155.723Z" fill="#F0EDE4" fill-opacity="0.9"/>
</svg>
